<svg height="40" viewBox="0 0 122 40" width="122" xmlns="http://www.w3.org/2000/svg" xmlns:xlink="http://www.w3.org/1999/xlink"><linearGradient id="a" gradientUnits="objectBoundingBox" x1=".4" x2=".6" y2="1"><stop offset="0" stop-color="#92effd"/><stop offset="1" stop-color="#4e65ff"/></linearGradient><path d="m445.246 242.342v.01c.055.037.109.072.166.107-.055-.041-.112-.078-.166-.117zm-4.166-7.057v-2.175m0 2.174v-2.174" fill="none" transform="translate(-401.004 -214.313)"/><g fill="url(#a)"><path d="m431.229 239.974c.215-.128.425-.268.628-.414-.203.14-.413.283-.628.414zm-.327.19c-.22.121-.445.238-.676.344.231-.103.455-.217.674-.343zm-.676.344c-.231.1-.465.2-.706.292.241-.085.48-.181.706-.291z" transform="translate(-406.081 -211.495)"/><path d="m471.776 227.066a9.964 9.964 0 0 0 -9.964 9.965v.314.138 7.657a2.082 2.082 0 1 0 4.164 0v-.007a9.964 9.964 0 1 0 5.8-18.067zm0 15.762a5.8 5.8 0 1 1 5.8-5.8 5.8 5.8 0 0 1 -5.8 5.8z" transform="translate(-391.955 -216.954)"/><path d="m487.555 227.066a9.965 9.965 0 0 0 -9.962 9.965c0 .1 0 .21.006.314 0 .045-.006.092-.006.138v7.657a2.083 2.083 0 0 0 4.166 0v-.007a9.964 9.964 0 1 0 5.8-18.067zm0 15.762a5.8 5.8 0 1 1 5.8-5.8 5.8 5.8 0 0 1 -5.8 5.8z" transform="translate(-384.997 -216.954)"/><path d="m465.963 236.941a9.97 9.97 0 1 0 -4.169 8.1v.007a2.084 2.084 0 0 0 4.169 0v-7.657c0-.048 0-.094-.006-.138.003-.102.006-.207.006-.312zm-9.965 5.8a5.8 5.8 0 1 1 5.8-5.8 5.8 5.8 0 0 1 -5.798 5.798z" transform="translate(-398.911 -216.994)"/><path d="m445.246 228.513v15.994a2.083 2.083 0 0 1 -4.166-.006v-9.236a9.96 9.96 0 0 1 4.145-7.043 2.136 2.136 0 0 1 .021.291z" transform="translate(-401.095 -216.445)"/></g><path d="m445.136 228.394a9.977 9.977 0 0 0 -1.461 1.187c-.081.078-.159.159-.232.238a9.9 9.9 0 0 0 -2.363 4.109v-4.885a1.724 1.724 0 0 1 .01-.195 2.026 2.026 0 0 1 .075-.385 1.185 1.185 0 0 1 .055-.161 2.088 2.088 0 0 1 1.944-1.326 2.064 2.064 0 0 1 1.47.612 2.043 2.043 0 0 1 .5.785z" fill="#f6072f" transform="translate(-401.095 -216.994)"/><path d="m440.129 237.438v-.056c0-.086 0-.171 0-.258a9.937 9.937 0 0 0 -1.2-4.749c-.076-.141-.159-.28-.241-.416a10 10 0 0 0 -.831-1.171c-.1-.124-.209-.245-.316-.362s-.218-.235-.328-.346a9.957 9.957 0 0 0 -14.09 0c-.056.056-.111.114-.169.17-.108.117-.215.233-.321.354s-.206.242-.3.369c-.2.251-.382.513-.555.78-.088.137-.171.272-.251.412s-.156.28-.231.424a9.935 9.935 0 0 0 -1.089 4.536c0 .1 0 .21.006.314 0 .045-.006.089-.006.137v7.655a2.083 2.083 0 1 0 4.166 0v-.007c.1.075.2.144.31.213s.193.127.291.186a.492.492 0 0 0 .055.032c.1.062.2.12.3.176l.094.052c.079.043.159.085.241.127.114.056.225.114.342.166.231.1.465.2.706.293.12.045.241.086.362.127.086.029.176.056.265.081.128.04.258.075.386.107.052.014.1.027.151.037.232.056.47.1.707.141.13.02.261.039.392.055.107.012.213.024.321.032l.11.01c.111.01.22.014.331.02h.068c.121.006.245.009.369.009s.245 0 .369-.009h.066c.111-.006.223-.01.331-.02l.092-.007c.114-.01.225-.02.339-.035.13-.016.261-.035.389-.055.11-.017.218-.037.324-.058.033-.007.065-.012.1-.019.105-.023.206-.045.31-.071.156-.036.31-.076.464-.122.105-.03.212-.062.317-.1.121-.04.242-.082.36-.127.241-.089.475-.189.706-.293s.455-.223.676-.344c.109-.062.219-.124.326-.187q.324-.2.63-.416v.007a2.084 2.084 0 1 0 4.167 0v-7.655c-.007-.046-.01-.094-.011-.139zm-9.959 5.483a5.8 5.8 0 1 1 5.8-5.8 5.772 5.772 0 0 1 -5.801 5.8z" fill="url(#a)" transform="translate(-410.161 -216.915)"/><path d="m424.259 228.565a9.964 9.964 0 0 0 -4.056 5.762v-5.086a2.086 2.086 0 0 1 3.559-1.473 2.055 2.055 0 0 1 .497.797z" fill="#f6072f" transform="translate(-410.161 -216.915)"/><circle cx="1.026" cy="1.026" fill="url(#a)" r="1.026" transform="translate(16.209 18.231)"/><circle cx="1.026" cy="1.026" fill="url(#a)" r="1.026" transform="translate(21.418 18.231)"/><path d="m10.043 10.074h19.926v20.095h-19.926z" fill="none" opacity=".2"/><path d="m0 0h122v40h-122z" fill="none" opacity=".2"/><path d="m39.984 10.078h72.539v20.095h-72.539z" fill="none" opacity=".2"/></svg>