<svg width="1128" height="260" viewBox="0 0 1128 260" fill="none" xmlns="http://www.w3.org/2000/svg">
<path d="M446.7 203.407C479.896 203.407 504.9 184.007 504.9 151.673V49.5H470.411V148.656C470.411 160.08 465.022 169.78 446.7 169.78C428.378 169.78 422.989 160.08 422.989 148.656V49.5H388.5V151.673C388.5 184.007 413.504 203.407 446.7 203.407Z" fill="#2A3049"/>
<path d="M599.613 89.5933C585.171 89.5933 574.609 94.5511 567.495 102.742V92.6111H535.162V243.5H567.495V190.258C574.609 198.449 585.171 203.407 599.613 203.407C627.851 203.407 651.131 178.618 651.131 146.5C651.131 114.382 627.851 89.5933 599.613 89.5933ZM593.146 172.798C578.273 172.798 567.495 162.667 567.495 146.5C567.495 130.333 578.273 120.202 593.146 120.202C608.02 120.202 618.798 130.333 618.798 146.5C618.798 162.667 608.02 172.798 593.146 172.798Z" fill="#2A3049"/>
<path d="M734.13 49.5H677.008V200.389H711.497V152.967H734.13C763.877 152.967 786.941 129.902 786.941 101.233C786.941 72.5644 763.877 49.5 734.13 49.5ZM734.13 120.633H711.497V81.8333H734.13C744.692 81.8333 752.452 90.24 752.452 101.233C752.452 112.227 744.692 120.633 734.13 120.633Z" fill="#2A3049"/>
<path d="M881.262 92.6111V102.742C874.148 94.5511 863.586 89.5933 849.144 89.5933C820.906 89.5933 797.626 114.382 797.626 146.5C797.626 178.618 820.906 203.407 849.144 203.407C863.586 203.407 874.148 198.449 881.262 190.258V200.389H913.595V92.6111H881.262ZM855.611 172.798C840.737 172.798 829.959 162.667 829.959 146.5C829.959 130.333 840.737 120.202 855.611 120.202C870.484 120.202 881.262 130.333 881.262 146.5C881.262 162.667 870.484 172.798 855.611 172.798Z" fill="#2A3049"/>
<path d="M973.339 124.082C973.339 120.202 976.788 118.047 982.393 118.047C989.506 118.047 993.817 121.927 996.835 127.531L1024.43 112.658C1015.37 97.3533 999.853 89.5933 982.393 89.5933C959.975 89.5933 940.144 101.449 940.144 124.944C940.144 162.236 993.17 155.984 993.17 167.84C993.17 172.151 989.29 174.522 981.53 174.522C972.046 174.522 966.01 169.996 963.208 161.804L935.186 177.756C943.593 195.216 959.975 203.407 981.53 203.407C1004.81 203.407 1026.37 192.844 1026.37 168.056C1026.37 128.178 973.339 136.369 973.339 124.082Z" fill="#2A3049"/>
<path d="M1074.11 124.082C1074.11 120.202 1077.56 118.047 1083.16 118.047C1090.28 118.047 1094.59 121.927 1097.61 127.531L1125.2 112.658C1116.14 97.3533 1100.62 89.5933 1083.16 89.5933C1060.75 89.5933 1040.92 101.449 1040.92 124.944C1040.92 162.236 1093.94 155.984 1093.94 167.84C1093.94 172.151 1090.06 174.522 1082.3 174.522C1072.82 174.522 1066.78 169.996 1063.98 161.804L1035.96 177.756C1044.36 195.216 1060.75 203.407 1082.3 203.407C1105.58 203.407 1127.14 192.844 1127.14 168.056C1127.14 128.178 1074.11 136.369 1074.11 124.082Z" fill="#2A3049"/>
<path d="M203.675 96.3203C209.113 96.3197 214.52 98.1644 218.915 101.775L271.131 144.663C297.601 166.405 294.206 207.893 264.553 225.042L249.039 234.015C212.914 254.906 167.621 251.199 135.374 224.712C131.653 221.656 126.427 221.228 122.258 223.639L66.9251 255.639C57.9045 260.856 46.5941 259.93 38.5417 253.316L5.88702 226.495C-0.857487 220.955 0.00763464 210.384 7.56309 206.015L26.3999 195.121C64.3825 222.123 114.934 224.746 155.716 201.161L263.807 138.65L218.912 101.775C214.517 98.1651 209.112 96.3204 203.675 96.3203Z" fill="#4364E8"/>
<path d="M155.716 201.161L263.807 138.65L245.946 123.979L155.716 176.161C122.372 195.444 82.4984 197.208 48.3027 182.452L26.3984 195.12C64.3812 222.123 114.934 224.746 155.716 201.161Z" fill="#3B54B8"/>
<path d="M245.946 123.979L155.716 176.161C122.372 195.444 82.4984 197.208 48.3027 182.452L191.663 99.5446C200.323 94.5365 211.181 95.4251 218.912 101.775L245.946 123.979Z" fill="#279DB3"/>
<path d="M26.437 83.2756C-3.72466 100.719 -7.17823 142.918 19.7461 165.033C28.5564 172.27 38.1808 178.085 48.3027 182.452L191.663 99.5446C200.323 94.5365 211.181 95.4251 218.912 101.775L245.946 123.979L283 102.55C290.254 98.3553 291.084 88.2072 284.609 82.889L191.066 6.05575C183.336 -0.293695 172.478 -1.1823 163.818 3.82581L26.437 83.2756Z" fill="#75E2D0"/>
</svg>
